<mxfile host="app.diagrams.net" modified="2023-06-19T02:12:17.438Z" agent="Mozilla/5.0 (Macintosh; Intel Mac OS X 10_15_7) AppleWebKit/537.36 (KHTML, like Gecko) Chrome/114.0.0.0 Safari/537.36" version="21.3.8" etag="IskWY7NRj3in0lEBjHKp" type="github">
  <diagram name="第 1 页" id="oOCrWgSegTQkUi6a5Zrf">
    <mxGraphModel>
      <root>
        <mxCell id="0" />
        <mxCell id="1" parent="0" />
      </root>
    </mxGraphModel>
  </diagram>
</mxfile>
